<?xml version="1.0" encoding="utf-8"?>
<!-- Generator: Adobe Illustrator 17.0.0, SVG Export Plug-In . SVG Version: 6.00 Build 0)  -->
<!DOCTYPE svg PUBLIC "-//W3C//DTD SVG 1.1//EN" "http://www.w3.org/Graphics/SVG/1.1/DTD/svg11.dtd">
<svg version="1.1" id="Layer_1" xmlns="http://www.w3.org/2000/svg" xmlns:xlink="http://www.w3.org/1999/xlink" x="0px" y="0px"
	 width="50px" height="50px" viewBox="0 0 50 50" enable-background="new 0 0 50 50" xml:space="preserve">
<g>
	<path fill="#FFFFFF" d="M37.689,21.363c2.408-0.648,4.214-2.871,4.214-5.511c0-3.149-2.547-5.743-5.743-5.743
		c-2.64,0-4.863,1.806-5.511,4.214l-5.002-5.002c-0.37-0.37-0.926-0.37-1.297,0l-6.576,6.53c-0.278,0.278-0.37,0.741-0.139,1.111
		c0.185,0.37,0.602,0.556,1.019,0.463c0.37-0.093,0.695-0.139,1.019-0.139c2.408,0,4.4,1.991,4.4,4.4s-1.991,4.4-4.4,4.4
		s-4.4-1.991-4.4-4.4c0-0.324,0.046-0.648,0.139-1.019c0.093-0.417-0.093-0.834-0.463-1.019c-0.37-0.185-0.834-0.139-1.111,0.139
		l-6.623,6.669c-0.37,0.37-0.37,0.926,0,1.297l17.135,17.135c0.185,0.185,0.417,0.278,0.648,0.278c0.232,0,0.463-0.093,0.648-0.278
		l17.135-17.135c0.37-0.37,0.37-0.926,0-1.297L37.689,21.363z M25,42.944L9.162,27.106l4.307-4.307
		c0.509,2.918,3.103,5.187,6.159,5.187c3.473,0,6.252-2.825,6.252-6.252c0-3.103-2.223-5.65-5.187-6.159l4.261-4.261l5.789,5.789
		c0.278,0.278,0.695,0.37,1.065,0.185c0.37-0.185,0.556-0.556,0.509-0.926v-0.139c0-0.139-0.046-0.232-0.046-0.324
		c0-2.13,1.76-3.89,3.89-3.89s3.89,1.76,3.89,3.89s-1.76,3.89-3.89,3.89c-0.093,0-0.185,0-0.324-0.046h-0.139
		c-0.37-0.046-0.787,0.139-0.926,0.509s-0.093,0.787,0.185,1.065l5.882,5.789L25,42.944z"/>
</g>
</svg>
