<?xml version="1.0" encoding="utf-8"?>
<!-- Generator: Adobe Illustrator 17.0.0, SVG Export Plug-In . SVG Version: 6.00 Build 0)  -->
<!DOCTYPE svg PUBLIC "-//W3C//DTD SVG 1.1//EN" "http://www.w3.org/Graphics/SVG/1.1/DTD/svg11.dtd">
<svg version="1.1" id="Layer_1" xmlns="http://www.w3.org/2000/svg" xmlns:xlink="http://www.w3.org/1999/xlink" x="0px" y="0px"
	 width="50px" height="50px" viewBox="0 0 50 50" enable-background="new 0 0 50 50" xml:space="preserve">
<path fill="#FFFFFF" d="M27.296,38.617c-0.477,0-0.933-0.148-1.321-0.427l-1.84-1.324l-1.366,1.127
	c-0.426,0.352-0.965,0.548-1.517,0.554c-1.183,0-2.19-0.84-2.401-1.978c-0.338,0.17-0.711,0.259-1.088,0.259l-0.141-0.004
	c-0.648-0.039-1.239-0.325-1.668-0.809c-0.347-0.391-0.559-0.885-0.602-1.402c-0.172,0.038-0.347,0.057-0.522,0.057
	c-0.171,0-0.34-0.018-0.502-0.053c-1.182-0.25-2.002-1.359-1.909-2.554c-0.565-0.018-1.023-0.178-1.415-0.464
	c-1.001-0.734-1.279-2.111-0.656-3.172l-0.691-0.508l-1.085,1.786L1.91,25.654l8.662-14.27l6.662,4.046l-1.027,1.69l0.178,0.001
	c1.303,0,2.626-0.058,3.931-0.173c0.873-0.269,1.816-0.408,2.78-0.408c0.757,0,1.515,0.088,2.251,0.262
	c0.363-0.268,0.982-0.43,1.619-0.43c0.435,0,0.862,0.074,1.269,0.22l3.674,1.312l2.126-0.832l-0.859-1.375l6.614-4.13l8.3,13.285
	l-6.614,4.13l-1.211-1.938l-2.499,2.292c0.042,0.035,0.043,0.154,0.034,0.271c-0.084,1.167-1.036,2.101-2.192,2.175
	c0.042,0.331,0.014,0.672-0.081,0.992c-0.302,1.02-1.256,1.731-2.318,1.731c-0.118,0-0.235-0.009-0.351-0.026
	c-0.007,0.431-0.127,0.851-0.351,1.221c-0.443,0.728-1.216,1.163-2.07,1.163c-0.306,0-0.615-0.06-0.901-0.175
	c-0.054,0.355-0.191,0.692-0.4,0.983C28.712,38.264,28.023,38.617,27.296,38.617z M26.738,37.128
	c0.153,0.101,0.335,0.155,0.525,0.155c0.3,0,0.578-0.136,0.761-0.372c0.157-0.203,0.225-0.455,0.193-0.709
	c-0.033-0.254-0.162-0.481-0.365-0.638l-3.815-2.742c-0.267-0.214-0.331-0.586-0.152-0.867c0.121-0.189,0.327-0.302,0.551-0.302
	c0.125,0,0.246,0.036,0.351,0.103l5.006,3.595c0.228,0.157,0.444,0.231,0.678,0.231c0.369,0,0.714-0.182,0.922-0.487
	c0.167-0.246,0.228-0.543,0.172-0.834c-0.057-0.293-0.223-0.546-0.469-0.713l-5.316-3.819c-0.29-0.209-0.357-0.616-0.151-0.907
	c0.123-0.173,0.322-0.275,0.533-0.275c0.136,0,0.267,0.042,0.378,0.121l6.018,4.324c0.181,0.123,0.396,0.188,0.619,0.188
	c0.351,0,0.675-0.16,0.887-0.439c0.371-0.489,0.276-1.188-0.213-1.56l-6.367-4.575c-0.29-0.213-0.355-0.608-0.151-0.901
	c0.122-0.175,0.323-0.28,0.536-0.28c0.135,0,0.264,0.041,0.374,0.118l6.605,4.746c0.173,0.12,0.378,0.184,0.591,0.184
	c0.31,0,0.602-0.136,0.8-0.372c0.179-0.214,0.264-0.484,0.24-0.762c-0.025-0.278-0.156-0.53-0.369-0.708l-8.702-7.065
	c-1.189,0.55-2.506,0.841-3.814,0.841c-0.837,0-1.669-0.116-2.475-0.344c-0.498-0.142-0.899-0.517-1.075-1.003
	c-0.146-0.405-0.126-0.843,0.057-1.232c0.182-0.389,0.506-0.685,0.911-0.831c0.861-0.309,1.698-0.692,2.494-1.138
	c-0.138-0.007-0.276-0.01-0.414-0.01h-0.019c-0.851,0.002-1.695,0.131-2.509,0.384c-1.4,0.132-2.803,0.196-4.19,0.196
	c-0.319,0-0.637-0.003-0.956-0.011l-5.093,8.379l0.928,0.681l1.24-1.024c0.425-0.349,0.962-0.545,1.511-0.552
	c1.161,0,2.162,0.817,2.395,1.925c0.393-0.258,0.859-0.398,1.329-0.398c0.197,0,0.394,0.024,0.585,0.072
	c0.627,0.156,1.156,0.547,1.489,1.101c0.274,0.456,0.39,0.99,0.331,1.515c0.059,0.003,0.116,0.008,0.173,0.014
	c1.196,0.14,2.114,1.161,2.139,2.352c0.093-0.011,0.187-0.017,0.281-0.017c0.404,0,0.805,0.103,1.16,0.296
	c0.567,0.31,0.979,0.822,1.161,1.443c0.16,0.544,0.123,1.123-0.102,1.641L26.738,37.128z M22.675,33.739
	c-0.287,0.067-0.49,0.15-0.66,0.287l-1.508,1.242c-0.455,0.386-0.521,1.08-0.145,1.547c0.212,0.263,0.528,0.414,0.867,0.414
	c0.257,0,0.498-0.085,0.698-0.246l1.505-1.243c0.237-0.199,0.381-0.493,0.394-0.805c0.025-0.613-0.454-1.132-1.067-1.157
	l-0.075-0.003L22.675,33.739z M19.959,31.425c-0.236,0.012-0.459,0.098-0.644,0.249l-2.272,1.876c-0.23,0.189-0.372,0.456-0.4,0.752
	c-0.029,0.297,0.06,0.587,0.249,0.816c0.213,0.257,0.526,0.404,0.86,0.404c0.257,0,0.509-0.091,0.708-0.255l2.274-1.878
	c0.267-0.223,0.415-0.565,0.396-0.914c-0.032-0.59-0.519-1.052-1.11-1.052h-0.036L19.959,31.425z M17.673,28.736
	c-0.238,0.012-0.471,0.102-0.655,0.254l-2.907,2.4c-0.461,0.387-0.528,1.084-0.146,1.553c0.211,0.261,0.527,0.411,0.864,0.411
	c0.254,0,0.503-0.088,0.701-0.249l2.906-2.399c0.27-0.223,0.42-0.564,0.403-0.913c-0.029-0.594-0.517-1.058-1.111-1.058h-0.038
	L17.673,28.736z M13.961,27.213c-0.23,0.013-0.456,0.101-0.637,0.248l-1.606,1.327c-0.434,0.383-0.497,1.047-0.14,1.511
	c0.212,0.275,0.534,0.433,0.882,0.433c0.248,0,0.483-0.08,0.679-0.232l1.604-1.322c0.237-0.2,0.382-0.494,0.395-0.805
	c0.027-0.613-0.451-1.133-1.064-1.16l-0.065-0.003L13.961,27.213z M36.939,27.615c0.137,0.111,0.259,0.236,0.367,0.374l2.257-2.072
	l-4.821-7.718l-2.826,1.033l-4.119-1.409c-0.235-0.084-0.48-0.132-0.728-0.144l-0.107-0.002c-0.503,0-0.99,0.152-1.406,0.439
	c-1.269,0.876-2.649,1.584-4.101,2.106c-0.092,0.033-0.163,0.11-0.19,0.205c-0.045,0.162,0.05,0.332,0.212,0.377
	c0.689,0.195,1.401,0.294,2.118,0.294c1.338,0,2.66-0.348,3.825-1.007l0.061-0.035l0.141-0.006L36.939,27.615z M8.123,27.909
	l7.316-12.041l-4.43-2.69L3.693,25.216L8.123,27.909z M41.893,27.184l4.397-2.747l-6.915-11.071l-4.399,2.748L41.893,27.184z"/>
</svg>
