<?xml version="1.0" encoding="utf-8"?>
<!-- Generator: Adobe Illustrator 17.0.0, SVG Export Plug-In . SVG Version: 6.00 Build 0)  -->
<!DOCTYPE svg PUBLIC "-//W3C//DTD SVG 1.1//EN" "http://www.w3.org/Graphics/SVG/1.1/DTD/svg11.dtd">
<svg version="1.1" id="Layer_1" xmlns="http://www.w3.org/2000/svg" xmlns:xlink="http://www.w3.org/1999/xlink" x="0px" y="0px"
	 width="50px" height="50px" viewBox="0 0 50 50" enable-background="new 0 0 50 50" xml:space="preserve">
<path fill="#FFFFFF" d="M23.48,12.842c1.033-1.036,1.033-2.713,0-3.749c-0.388-0.388-0.388-1.017,0-1.404
	c0.388-0.388,1.017-0.388,1.404,0c1.806,1.811,1.806,4.742,0,6.553c-1.033,1.036-1.033,2.713,0,3.749
	c0.388,0.388,0.388,1.017,0,1.404s-1.017,0.388-1.404,0C21.674,17.584,21.674,14.653,23.48,12.842z M29.43,14.322
	c-1.4,1.403-1.4,3.675,0,5.078c0.388,0.388,1.017,0.388,1.404,0c0.388-0.388,0.388-1.017,0-1.404c-0.626-0.628-0.626-1.645,0-2.273
	l0,0c1.402-1.402,1.402-3.675,0.001-5.077c0,0,0,0-0.001-0.001c-0.388-0.388-1.017-0.388-1.404,0c-0.388,0.388-0.388,1.017,0,1.404
	C30.058,12.676,30.059,13.693,29.43,14.322C29.431,14.321,29.431,14.321,29.43,14.322z M17.53,19.399
	c0.388,0.388,1.017,0.388,1.404,0s0.388-1.017,0-1.404c-0.626-0.628-0.626-1.645,0-2.273l0,0c1.4-1.403,1.4-3.675,0-5.078
	c-0.388-0.388-1.017-0.388-1.404,0c-0.388,0.388-0.388,1.017,0,1.404l0,0c0.626,0.628,0.626,1.645,0,2.273l0,0
	c-1.398,1.403-1.398,3.671,0,5.074V19.399z M7.755,41.614c-0.002-0.546,0.438-0.991,0.984-0.996h6.93
	c-2.11-1.366-3.695-3.408-4.495-5.792c-0.063-0.193-0.124-0.389-0.182-0.587c-0.886-3.118-1.441-6.322-1.654-9.556
	c-0.042-0.744,0.223-1.472,0.734-2.015c0.516-0.545,1.233-0.854,1.983-0.857h22.31c0.75,0.002,1.467,0.312,1.983,0.857
	c0.511,0.542,0.776,1.271,0.734,2.015c-0.04,0.682-0.103,1.384-0.186,2.095h0.587c2.629-0.001,4.761,2.13,4.762,4.759
	c0,0.387-0.047,0.772-0.14,1.148c-0.529,2.118-2.431,3.604-4.614,3.606h-2.872c-0.91,1.759-2.262,3.25-3.923,4.328h6.787
	c0.548,0,0.992,0.444,0.992,0.992c0,0.548-0.444,0.992-0.992,0.992H8.739c-0.545-0.004-0.984-0.447-0.984-0.992V41.614z
	 M35.413,34.307h2.075c1.272-0.002,2.381-0.868,2.69-2.102c0.368-1.489-0.54-2.994-2.029-3.362c-0.216-0.053-0.438-0.081-0.66-0.081
	H36.63c-0.288,1.849-0.685,3.68-1.19,5.482L35.413,34.307z M22.068,40.535h2.281c4.205,0.02,7.925-2.721,9.152-6.744l0.028-0.091
	c0.848-2.977,1.38-6.035,1.587-9.124c0.011-0.198-0.061-0.392-0.198-0.536c-0.143-0.151-0.343-0.234-0.551-0.23H12.063
	c-0.207-0.002-0.406,0.083-0.547,0.234c-0.138,0.143-0.21,0.337-0.198,0.536c0.207,3.089,0.739,6.147,1.587,9.124
	c0.048,0.171,0.099,0.337,0.155,0.5C14.384,38.035,18.014,40.587,22.068,40.535z"/>
</svg>
