<?xml version="1.0" encoding="utf-8"?>
<!-- Generator: Adobe Illustrator 17.0.0, SVG Export Plug-In . SVG Version: 6.00 Build 0)  -->
<!DOCTYPE svg PUBLIC "-//W3C//DTD SVG 1.1//EN" "http://www.w3.org/Graphics/SVG/1.1/DTD/svg11.dtd">
<svg version="1.1" id="Layer_1" xmlns="http://www.w3.org/2000/svg" xmlns:xlink="http://www.w3.org/1999/xlink" x="0px" y="0px"
	 width="50px" height="50px" viewBox="0 0 50 50" enable-background="new 0 0 50 50" xml:space="preserve">
<g>
	<path fill="#FFFFFF" d="M16.371,43.508c-0.372,0-0.675-0.303-0.675-0.675v-2.876c0-1.324,1.076-2.401,2.4-2.401
		c0.216-1.677,1.604-3.089,3.354-3.379c0.028-0.881,0.493-1.64,1.232-2.057v-3.79c-1.616-0.311-3.025-0.955-4.188-1.914
		c-1.454-1.198-2.563-2.868-3.388-5.104c-4.961-1.028-8.614-5.553-8.614-10.694c0-0.372,0.303-0.675,0.675-0.675h6.262
		C13.408,9,13.396,8.063,13.396,7.167c0-0.372,0.303-0.675,0.675-0.675H35.93c0.372,0,0.675,0.303,0.675,0.675
		c0,0.896-0.013,1.833-0.033,2.776h6.262c0.372,0,0.675,0.303,0.675,0.675c0,5.142-3.653,9.666-8.687,10.758
		c-0.753,2.172-1.861,3.842-3.315,5.04c-1.163,0.959-2.572,1.604-4.188,1.914v3.79c0.763,0.43,1.233,1.223,1.233,2.084
		c1.676,0.215,3.088,1.604,3.38,3.353c1.341,0.044,2.373,1.104,2.373,2.4v2.876c0,0.372-0.303,0.675-0.675,0.675H16.371z
		 M32.954,42.158v-2.201c0-0.59-0.462-1.052-1.051-1.052H18.097c-0.589,0-1.051,0.462-1.051,1.052v2.201H32.954z M30.389,37.556
		c-0.339-1.281-1.313-2.102-2.513-2.102h-5.752c-1.199,0-2.174,0.82-2.513,2.102H30.389z M27.196,34.104
		c-0.049-0.541-0.49-0.951-1.046-0.951H23.85c-0.556,0-0.997,0.41-1.046,0.951H27.196z M25.968,31.804v-3.291
		c-0.315,0.024-0.636,0.038-0.968,0.038s-0.652-0.014-0.968-0.038v3.291H25.968z M14.767,7.842
		c0.017,4.476,0.218,9.116,1.521,12.799c0.73,2.065,1.762,3.658,3.065,4.733c1.491,1.229,3.338,1.827,5.646,1.827
		s4.155-0.598,5.646-1.827c1.303-1.074,2.335-2.667,3.065-4.733c1.304-3.683,1.505-8.323,1.521-12.799H14.767z M40.195,12.245
		c0.067,0,0.133,0.01,0.194,0.028c0.356,0.107,0.559,0.484,0.451,0.842c-0.762,2.56-2.723,4.666-5.243,5.635
		c-0.037,0.331-0.127,0.71-0.233,1.09c3.734-1.174,6.399-4.578,6.684-8.547h-5.514c-0.012,0.317-0.024,0.634-0.04,0.952H40.195z
		 M7.952,11.293c0.284,3.969,2.949,7.373,6.684,8.547c-0.107-0.381-0.205-0.769-0.295-1.161c-2.46-0.898-4.42-3.005-5.182-5.564
		c-0.019-0.061-0.028-0.127-0.028-0.194c0-0.372,0.303-0.675,0.675-0.675h3.7c-0.015-0.305-0.04-0.952-0.04-0.952H7.952z
		 M10.942,13.595c0.684,1.506,1.768,2.732,3.077,3.482c-0.184-1.082-0.321-2.225-0.42-3.482H10.942z M36.4,13.595
		c-0.099,1.258-0.236,2.4-0.42,3.482c1.311-0.752,2.394-1.978,3.077-3.482H36.4z M18.652,41.208c-0.36,0-0.657-0.282-0.675-0.642
		c-0.01-0.181,0.052-0.354,0.173-0.488c0.121-0.134,0.287-0.212,0.468-0.221h12.719c0.198,0.002,0.366,0.074,0.492,0.203
		c0.126,0.13,0.193,0.301,0.19,0.481c-0.004,0.366-0.308,0.665-0.676,0.665L18.652,41.208z M29.031,24.737
		c-0.225,0-0.434-0.109-0.561-0.294c-0.209-0.309-0.13-0.729,0.178-0.939c1.17-0.786,2.037-2.024,2.652-3.786
		c0.086-0.256,0.316-0.437,0.588-0.458c0.001,0,0.003,0,0.005,0c0.135,0,0.208,0.013,0.279,0.039
		c0.35,0.128,0.529,0.517,0.401,0.866c-0.704,2.017-1.771,3.518-3.17,4.46C29.293,24.699,29.164,24.737,29.031,24.737z
		 M32.488,18.605c-0.054,0-0.108-0.007-0.162-0.021c-0.361-0.09-0.583-0.457-0.493-0.818c0.107-0.517,0.195-1.055,0.267-1.602
		c0.037-0.317,0.296-0.568,0.616-0.595l0.14,0.105l0.015-0.099c0.368,0.054,0.623,0.396,0.569,0.766
		c-0.075,0.574-0.17,1.145-0.286,1.702C33.069,18.394,32.8,18.605,32.488,18.605L32.488,18.605z"/>
</g>
</svg>
