<?xml version="1.0" encoding="utf-8"?>
<!-- Generator: Adobe Illustrator 17.0.0, SVG Export Plug-In . SVG Version: 6.00 Build 0)  -->
<!DOCTYPE svg PUBLIC "-//W3C//DTD SVG 1.1//EN" "http://www.w3.org/Graphics/SVG/1.1/DTD/svg11.dtd">
<svg version="1.1" xmlns="http://www.w3.org/2000/svg" xmlns:xlink="http://www.w3.org/1999/xlink" x="0px" y="0px" width="77px"
	 height="77px" viewBox="0 0 77 77" enable-background="new 0 0 77 77" xml:space="preserve">
<g id="Layer_3">
</g>
<g id="Layer_1">
</g>
<g id="Layer_2">
	<g>
		<path fill="#231F20" d="M7.017,15.737h53.227v8.305h4.454v-9.966c0-1.51-1.283-2.793-2.793-2.793H5.431
			c-1.51,0-2.793,1.283-2.793,2.793v38.278c0,1.51,1.208,2.793,2.793,2.793h22.725v5.058h-4.983c-0.755,0-1.359,0.604-1.359,1.359
			v2.642c0,0.755,0.604,1.359,1.359,1.359h21.14c0.755,0,1.359-0.604,1.359-1.359v-2.642c0-0.755-0.604-1.359-1.359-1.359h-5.058
			v-5.058h10.419v-9.739H7.017V15.737z M33.668,48.277c1.057,0,1.963,0.906,1.963,1.963c0,1.057-0.906,1.963-1.963,1.963
			c-1.057,0-1.963-0.906-1.963-1.963C31.705,49.183,32.611,48.277,33.668,48.277z"/>
		<path fill="#231F20" d="M71.342,27.213H55.789c-1.661,0-2.944,1.359-2.944,3.02v32.465c0,1.661,1.359,3.02,2.944,3.02h15.553
			c1.661,0,3.02-1.359,3.02-3.02v-32.54C74.362,28.496,73.003,27.213,71.342,27.213z M61.074,29.402h4.907
			c0.377,0,0.679,0.302,0.679,0.679c0,0.377-0.302,0.679-0.679,0.679h-4.907c-0.377,0-0.679-0.302-0.679-0.679
			C60.395,29.704,60.697,29.402,61.074,29.402z M63.566,63.453c-1.057,0-1.963-0.906-1.963-1.963c0-1.057,0.906-1.963,1.963-1.963
			s1.963,0.906,1.963,1.963C65.529,62.547,64.623,63.453,63.566,63.453z M71.116,57.337h-15.1V32.951h15.175v24.386H71.116z"/>
	</g>
</g>
</svg>
