<?xml version="1.0" encoding="utf-8"?>
<!-- Generator: Adobe Illustrator 17.0.0, SVG Export Plug-In . SVG Version: 6.00 Build 0)  -->
<!DOCTYPE svg PUBLIC "-//W3C//DTD SVG 1.1//EN" "http://www.w3.org/Graphics/SVG/1.1/DTD/svg11.dtd">
<svg version="1.1" xmlns="http://www.w3.org/2000/svg" xmlns:xlink="http://www.w3.org/1999/xlink" x="0px" y="0px" width="77px"
	 height="77px" viewBox="0 0 77 77" enable-background="new 0 0 77 77" xml:space="preserve">
<g id="Layer_3">
</g>
<g id="Layer_1">
</g>
<g id="Layer_2">
	<g>
		<path fill="#231F20" d="M68.921,6.289c-15.841,0-30.493,6.786-40.76,17.895H8.079c-0.724,0-1.376,0.436-1.653,1.104
			c-0.277,0.669-0.124,1.438,0.388,1.95l11.604,11.604c-1.2,2.641-2.208,5.397-2.991,8.26c-0.17,0.62,0.006,1.283,0.461,1.737
			l12.273,12.272c0.34,0.341,0.797,0.524,1.266,0.524c0.157,0,0.316-0.021,0.472-0.063c2.863-0.783,5.619-1.791,8.26-2.991
			l11.604,11.604c0.341,0.343,0.8,0.525,1.265,0.525c0.23,0,0.463-0.044,0.684-0.136c0.669-0.277,1.105-0.93,1.105-1.653V48.839
			C63.925,38.572,70.711,23.92,70.711,8.079C70.711,7.09,69.91,6.289,68.921,6.289z M29.948,57.839L19.162,47.052
			C23.526,32.26,34.179,20.52,47.694,14.435l14.871,14.871C56.48,42.821,44.74,53.474,29.948,57.839z M67.1,9.9
			c-0.193,5.493-1.258,10.813-3.071,15.808L51.292,12.972C56.287,11.159,61.607,10.093,67.1,9.9z M12.399,27.763h12.726
			c-1.875,2.409-3.558,4.981-5.026,7.7L12.399,27.763z M49.237,64.601l-7.7-7.7c2.719-1.467,5.291-3.15,7.7-5.026V64.601z"/>
		<path fill="#231F20" d="M8.079,70.711c0.458,0,0.916-0.175,1.266-0.524l7.158-7.158c0.699-0.699,0.699-1.832,0-2.53
			c-0.699-0.699-1.832-0.699-2.53,0l-7.158,7.158c-0.699,0.699-0.699,1.832,0,2.53C7.163,70.536,7.621,70.711,8.079,70.711z"/>
		<path fill="#231F20" d="M15.761,70.187c0.349,0.349,0.807,0.524,1.266,0.524c0.458,0,0.916-0.175,1.266-0.524l5.368-5.368
			c0.699-0.699,0.699-1.832,0-2.53c-0.699-0.699-1.832-0.699-2.53,0l-5.368,5.368C15.062,68.354,15.062,69.488,15.761,70.187z"/>
		<path fill="#231F20" d="M8.079,61.763c0.458,0,0.916-0.175,1.266-0.524l5.368-5.368c0.699-0.699,0.699-1.832,0-2.53
			c-0.699-0.699-1.832-0.699-2.53,0l-5.368,5.368c-0.699,0.699-0.699,1.832,0,2.53C7.163,61.589,7.621,61.763,8.079,61.763z"/>
		<path fill="#231F20" d="M42.079,25.974c-4.934,0-8.947,4.013-8.947,8.947s4.013,8.947,8.947,8.947s8.947-4.013,8.947-8.947
			S47.013,25.974,42.079,25.974z M42.079,40.289c-2.961,0-5.368-2.408-5.368-5.368s2.408-5.368,5.368-5.368s5.368,2.408,5.368,5.368
			S45.04,40.289,42.079,40.289z"/>
	</g>
</g>
</svg>
