<?xml version="1.0" encoding="utf-8"?>
<!-- Generator: Adobe Illustrator 17.0.0, SVG Export Plug-In . SVG Version: 6.00 Build 0)  -->
<!DOCTYPE svg PUBLIC "-//W3C//DTD SVG 1.1//EN" "http://www.w3.org/Graphics/SVG/1.1/DTD/svg11.dtd">
<svg version="1.1" xmlns="http://www.w3.org/2000/svg" xmlns:xlink="http://www.w3.org/1999/xlink" x="0px" y="0px" width="77px"
	 height="77px" viewBox="0 0 77 77" enable-background="new 0 0 77 77" xml:space="preserve">
<g id="Layer_3">
</g>
<g id="Layer_1">
</g>
<g id="Layer_2">
	<g transform="translate(0,-952.36218)">
		<path fill="#231F20" d="M11,956.29v59.715c0,0.823,0.749,1.572,1.571,1.572h7.833v6.286c0.164,1.748,1.6,3.117,3.143,3.143h28.286
			c0.668-0.047,1.184-0.556,1.596-0.933c4.021-3.806,8.549-8.017,12.056-11.27c0.312-0.296,0.495-0.724,0.491-1.154L66,967.28
			c-0.664-1.534-1.844-2.894-3.143-3.143l-6.286,0.011v-7.857c0-0.823-0.749-1.572-1.571-1.572c-14.782,0-29.789,0-42.459,0
			C11.786,954.708,11.019,955.589,11,956.29L11,956.29z M14.143,957.861h39.286v6.286H23.547c-1.748,0.164-3.117,1.6-3.143,3.143
			v47.143h-6.261L14.143,957.861z M23.547,967.29c13.079-0.053,26.295,0.079,39.31-0.01l-0.025,42.439c-4.968,0-9.936,0-14.904,0
			c0,4.714,0,9.429,0,14.143H23.547L23.547,967.29z M29.833,975.933v3.143h26.714v-3.143H29.833z M29.833,986.933v3.143h26.714
			v-3.143H29.833z M29.833,997.933v3.143H48.69v-3.143H29.833z"/>
	</g>
</g>
</svg>
