<?xml version="1.0" encoding="utf-8"?>
<!-- Generator: Adobe Illustrator 17.0.0, SVG Export Plug-In . SVG Version: 6.00 Build 0)  -->
<!DOCTYPE svg PUBLIC "-//W3C//DTD SVG 1.1//EN" "http://www.w3.org/Graphics/SVG/1.1/DTD/svg11.dtd">
<svg version="1.1" xmlns="http://www.w3.org/2000/svg" xmlns:xlink="http://www.w3.org/1999/xlink" x="0px" y="0px" width="77px"
	 height="77px" viewBox="0 0 77 77" enable-background="new 0 0 77 77" xml:space="preserve">
<g id="Layer_3">
</g>
<g id="Layer_1">
</g>
<g id="Layer_2">
	<g>
		<g>
			<path fill="#231F20" d="M73.352,40.001c0,3.022,0.4,5.48-0.114,7.728c-0.502,2.198-1.521,4.569-3.034,6.193
				c-5.21,5.593-10.754,10.875-16.133,16.313c-2.233,2.258-4.867,3.291-8.04,3.28c-12.486-0.041-24.972-0.003-37.457-0.018
				c-3.879-0.005-5.039-1.174-5.043-5.033C3.52,56.155,3.578,43.844,3.5,31.535c-0.023-3.67,1.174-6.612,3.829-9.157
				c4.315-4.136,8.776-8.178,12.631-12.721c4.47-5.268,9.786-7.132,16.766-5.716c-0.63,0.689-1.197,1.36-1.815,1.979
				c-7.207,7.216-14.394,14.452-21.659,21.609c-1.349,1.329-1.998,2.654-1.961,4.598c0.121,6.417,0.089,12.837,0.017,19.255
				c-0.019,1.673,0.328,2.663,2.092,3.342c4.217,1.622,7.21,4.688,8.801,8.926c0.601,1.601,1.449,2.102,3.09,2.082
				c6.682-0.079,13.367,0.049,20.045-0.122c1.303-0.033,2.878-0.758,3.823-1.681c7.295-7.124,14.465-14.377,21.679-21.584
				C71.503,41.682,72.212,41.062,73.352,40.001z"/>
			<path fill="#231F20" d="M37.876,44.669c-1.859-1.918-3.568-3.681-5.837-6.022c1.895-1.667,4.024-3.355,5.941-5.257
				c9.424-9.347,18.788-18.754,28.182-28.132c2.066-2.063,4.5-2.219,6.168-0.442c1.643,1.752,1.465,4.034-0.501,6.002
				c-10.875,10.884-21.755,21.763-32.636,32.64C38.825,43.827,38.426,44.166,37.876,44.669z"/>
			<path fill="#231F20" d="M73.399,19.966c0,3.252,0.038,6.54-0.039,9.825c-0.012,0.526-0.446,1.137-0.852,1.544
				c-8.619,8.641-17.262,17.26-25.907,25.876c-0.173,0.172-0.429,0.261-0.811,0.486c-1.1-2.109-2.24-4.147-3.207-6.264
				c-0.202-0.442,0.034-1.375,0.405-1.747c9.918-9.949,19.879-19.853,29.839-29.76C72.864,19.888,72.981,19.932,73.399,19.966z"/>
			<path fill="#231F20" d="M25.72,34.506c-1.622-0.819-3.955-1.996-6.496-3.279c0.491-0.588,0.878-1.128,1.341-1.592
				c8.075-8.089,16.187-16.141,24.216-24.276c1.28-1.297,2.568-1.896,4.388-1.803c2.62,0.134,5.251,0.034,7.565,0.034
				C46.53,13.761,36.254,24.005,25.72,34.506z"/>
		</g>
	</g>
</g>
</svg>
