<?xml version="1.0" encoding="utf-8"?>
<!-- Generator: Adobe Illustrator 17.0.0, SVG Export Plug-In . SVG Version: 6.00 Build 0)  -->
<!DOCTYPE svg PUBLIC "-//W3C//DTD SVG 1.1//EN" "http://www.w3.org/Graphics/SVG/1.1/DTD/svg11.dtd">
<svg version="1.1" xmlns="http://www.w3.org/2000/svg" xmlns:xlink="http://www.w3.org/1999/xlink" x="0px" y="0px" width="172px"
	 height="212px" viewBox="0 0 172 212" enable-background="new 0 0 172 212" xml:space="preserve">
<g id="Layer_3">
</g>
<g id="Layer_1">
</g>
<g id="Layer_2">
	<g>
		<rect x="0.625" y="0.455" fill="#F8C218" width="170.326" height="170.326"/>
		<g>
			<g>
				<g>
					<path fill="#FFFFFF" d="M83.11,180.322v10.845c1.382-2.763,4.146-4.007,7.081-4.007c4.766,0,8.566,3.178,8.566,8.808
						c0,5.665-3.763,8.808-8.531,8.808c-2.901,0-5.699-1.451-7.115-4.042v3.765h-1.657v-24.178H83.11z M83.146,195.934
						c0,4.248,2.969,7.183,6.977,7.183c3.833,0,6.977-2.417,6.977-7.149c0-4.801-3.143-7.184-6.977-7.184
						C86.185,188.784,83.146,191.685,83.146,195.934z"/>
					<path fill="#FFFFFF" d="M119.302,187.437c0,5.699,0,11.364,0,17.063h-1.693v-3.627c-1.657,2.66-4.213,3.904-6.977,3.904
						c-4.766,0-8.67-3.593-8.67-8.808c0-5.216,3.904-8.739,8.67-8.739c2.764,0,5.562,1.278,6.977,3.938v-3.73H119.302z
						 M103.656,195.968c0,4.283,3.109,7.149,6.977,7.149c9.498,0,9.498-14.264,0-14.264
						C106.765,188.853,103.656,191.685,103.656,195.968z"/>
					<path fill="#FFFFFF" d="M123.028,187.437h12.848v0.656L125.1,202.911h10.776v1.589h-13.4v-0.587l10.879-14.956h-10.327V187.437
						z"/>
					<path fill="#FFFFFF" d="M155.802,187.437c0,5.699,0,11.364,0,17.063h-1.693v-3.627c-1.657,2.66-4.213,3.904-6.977,3.904
						c-4.766,0-8.67-3.593-8.67-8.808c0-5.216,3.904-8.739,8.67-8.739c2.764,0,5.562,1.278,6.977,3.938v-3.73H155.802z
						 M140.155,195.968c0,4.283,3.109,7.149,6.977,7.149c9.498,0,9.498-14.264,0-14.264
						C143.264,188.853,140.155,191.685,140.155,195.968z"/>
					<path fill="#FFFFFF" d="M22.149,182.67c0,3.281,4.973,3.281,4.973,0C27.121,179.389,22.149,179.389,22.149,182.67z"/>
					<rect x="22.528" y="187.402" fill="#FFFFFF" width="4.214" height="17.098"/>
					<polygon fill="#FFFFFF" points="47.153,187.609 47.153,187.471 42.11,187.471 38.758,193.239 35.408,187.471 30.365,187.471 
						30.365,187.609 35.962,195.865 30.02,204.396 30.02,204.499 35.063,204.499 38.758,198.8 42.455,204.499 47.498,204.499 
						47.498,204.396 41.557,195.865 					"/>
					<path fill="#FFFFFF" d="M57.926,186.953c-5.526,0-9.051,3.73-9.051,8.911c0,5.457,3.488,9.084,9.36,9.084
						c2.592,0,5.526-0.899,7.324-2.763l-2.694-2.66c-0.967,1.002-3.005,1.589-4.56,1.589c-2.971,0-4.8-1.52-5.077-3.627h13.298
						C67.181,190.476,63.625,186.953,57.926,186.953z M53.296,193.999c0.622-2.211,2.487-3.316,4.766-3.316
						c2.419,0,4.146,1.105,4.421,3.316H53.296z"/>
					<rect x="69.767" y="180.356" fill="#FFFFFF" width="4.179" height="24.144"/>
					<path fill="#FFFFFF" d="M167.714,187.264c-2.176,0-4.594,0.898-5.665,3.212v-3.039h-0.07h-1.589v3.039v14.024h1.693v-9.948
						c0-3.108,2.453-5.665,5.631-5.699c1.001,0,2.002,0.242,2.901,0.794l0.76-1.382
						C170.235,187.575,168.991,187.229,167.714,187.264z"/>
					<path fill="#FFFFFF" d="M10.375,186.953c-5.158,0-9.047,3.89-9.047,9.048c0,5.074,3.974,9.049,9.047,9.049
						c5.074,0,9.049-3.975,9.049-9.049C19.424,190.843,15.534,186.953,10.375,186.953z M10.375,200.838
						c-2.867,0-4.834-2.176-4.834-4.836c0-2.659,1.795-4.835,4.834-4.835s4.836,2.176,4.836,4.835
						C15.211,198.661,13.242,200.838,10.375,200.838z"/>
					<polygon fill="#FFFFFF" points="5.16,189.751 5.16,187.402 4.883,187.402 0.947,187.402 0.947,211.545 5.16,211.545 
						5.16,206.805 5.16,202.427 					"/>
				</g>
			</g>
			<g>
				<g>
					<rect x="35.024" y="27.825" fill="#1F1E21" width="2.323" height="124.813"/>
				</g>
				<rect x="28.856" y="69.409" fill="#1F1E21" width="14.659" height="14.659"/>
				<path fill="#1F1E21" d="M76.397,19.123v17.405h17.405V19.123H76.397z M89.811,32.537h-9.423v-9.423h9.423V32.537z"/>
				<path fill="#1F1E21" d="M125.315,68.032v17.405h17.405V68.032H125.315z M138.729,81.447h-9.423v-9.423h9.423V81.447z"/>
				<path fill="#1F1E21" d="M76.397,116.946v17.405h17.405v-17.405H76.397z M89.811,130.36h-9.423v-9.423h9.423V130.36z"/>
				<g>
					<path fill="#1F1E21" d="M89.811,121.014v8.807c25.635-2.258,46.11-22.738,48.366-48.374h-8.797
						C127.184,102.246,110.61,118.815,89.811,121.014z"/>
					<path fill="#1F1E21" d="M129.374,72.023h8.807c-2.259-25.631-22.737-46.104-48.37-48.361v8.798
						C110.608,34.657,127.174,51.228,129.374,72.023z"/>
					<path fill="#1F1E21" d="M80.388,23.662C53.2,26.057,31.803,48.94,31.803,76.739h8.766c0-22.963,17.472-41.918,39.819-44.28
						V23.662z"/>
				</g>
				<circle fill="#1F1E21" cx="36.186" cy="27.937" r="2.783"/>
				<circle fill="#1F1E21" cx="36.186" cy="152.638" r="2.783"/>
				
					<line fill="none" stroke="#1F1E21" stroke-width="1.1715" stroke-miterlimit="10" x1="134.018" y1="70.753" x2="134.018" y2="38.955"/>
				
					<line fill="none" stroke="#1F1E21" stroke-width="1.1715" stroke-miterlimit="10" x1="134.018" y1="115.389" x2="134.018" y2="83.591"/>
				<circle fill="#433D8B" stroke="#231F20" stroke-width="2.1965" stroke-miterlimit="10" cx="134.018" cy="38.955" r="0.875"/>
				<circle fill="#433D8B" stroke="#231F20" stroke-width="2.1965" stroke-miterlimit="10" cx="134.018" cy="114.514" r="1.161"/>
				
					<line fill="none" stroke="#1F1E21" stroke-width="1.1715" stroke-miterlimit="10" x1="92.264" y1="125.649" x2="124.062" y2="125.649"/>
				<g>
					<circle fill="#433D8B" stroke="#231F20" stroke-width="2.1965" stroke-miterlimit="10" cx="124.062" cy="125.649" r="1.161"/>
				</g>
				
					<line fill="none" stroke="#1F1E21" stroke-width="1.1715" stroke-miterlimit="10" x1="92.264" y1="27.825" x2="124.062" y2="27.825"/>
				<g>
					<circle fill="#433D8B" stroke="#231F20" stroke-width="2.1965" stroke-miterlimit="10" cx="124.062" cy="27.825" r="1.161"/>
				</g>
				<g>
					<path opacity="0.15" fill="#231F20" d="M71.916,137.839l-0.086-0.188c-0.341-0.735-0.91-1.34-1.612-1.731
						c-0.147-0.272-0.433-0.45-0.751-0.45c-0.019,0-0.225,0.013-0.225,0.013l-1.019-14.756c-0.017-0.23-0.125-0.444-0.301-0.593
						l-19.948-16.817c-0.157-0.132-0.352-0.201-0.55-0.201c-0.122,0-0.245,0.026-0.36,0.08l-2.718,1.263
						c-0.301,0.14-0.493,0.441-0.493,0.773v26.091c0,0.231,0.093,0.452,0.26,0.613l10.628,10.296l-0.091,0.095
						c-0.223,0.233-0.291,0.563-0.195,0.856c-0.174,0.811-0.082,1.663,0.271,2.421l0.083,0.18c0.628,1.351,1.996,2.224,3.486,2.224
						c0.563,0,1.108-0.121,1.618-0.36l10.134-4.711c0.933-0.433,1.639-1.202,1.989-2.164
						C72.392,139.811,72.348,138.767,71.916,137.839z"/>
					<path opacity="0.15" fill="#231F20" d="M71.517,135.708l-0.086-0.188c-0.341-0.735-0.91-1.34-1.612-1.731
						c-0.147-0.272-0.433-0.45-0.751-0.45c-0.019,0-0.225,0.013-0.225,0.013l-1.019-14.756c-0.017-0.23-0.125-0.444-0.301-0.593
						l-19.948-16.817c-0.157-0.132-0.352-0.201-0.55-0.201c-0.122,0-0.245,0.026-0.36,0.08l-2.718,1.263
						c-0.301,0.14-0.493,0.441-0.493,0.773v26.091c0,0.231,0.093,0.452,0.26,0.613l10.628,10.296l-0.091,0.095
						c-0.223,0.233-0.291,0.563-0.195,0.856c-0.174,0.811-0.082,1.663,0.271,2.421l0.083,0.18c0.628,1.351,1.996,2.224,3.486,2.224
						c0.563,0,1.108-0.121,1.618-0.36l10.134-4.711c0.933-0.433,1.639-1.202,1.989-2.164
						C71.993,137.68,71.95,136.636,71.517,135.708z"/>
					<path fill="#FFFFFF" d="M58.412,144.122c-1.965,0-3.769-1.15-4.598-2.934c-0.589-1.264-0.691-2.548-0.356-3.722l-10.717-10.378
						V98.787l5.126-2.381l21.638,18.241l1.028,14.884c1.109,0.496,2.013,1.377,2.527,2.491c0.656,1.414,0.713,2.792,0.244,4.059
						c-0.461,1.268-1.392,2.284-2.621,2.852l-10.134,4.714C59.86,143.964,59.145,144.122,58.412,144.122z"/>
					<path fill="#1F1E21" d="M71.258,133.078l-0.084-0.182c-0.36-0.775-1.037-1.349-1.834-1.594l-0.231-0.062
						c-0.179-0.039-0.362-0.063-0.548-0.069l-1.071-15.5L47.541,98.854l-2.718,1.263v26.091l11.158,10.809
						c-0.12,0.153-0.223,0.315-0.31,0.485l-0.09,0.192c-0.327,0.766-0.328,1.655,0.035,2.434l0.084,0.181
						c0.489,1.052,1.553,1.73,2.713,1.73c0.437,0,0.86-0.094,1.259-0.28l10.135-4.711c0.725-0.336,1.274-0.934,1.548-1.685
						C71.629,134.614,71.594,133.801,71.258,133.078z M57.909,135.766l-10.844-10.507v-21.217l7.141,15.362
						c-0.775,0.852-0.97,2.089-0.478,3.149c0.471,1.012,1.497,1.667,2.614,1.667c0.421,0,0.829-0.091,1.213-0.271
						c0.698-0.324,1.228-0.9,1.492-1.624c0.264-0.724,0.232-1.506-0.094-2.204c-0.484-1.04-1.565-1.702-2.714-1.663l-7.141-15.362
						l16.221,13.678l1.041,15.062L57.909,135.766z"/>
				</g>
			</g>
		</g>
	</g>
</g>
<g id="Layer_4">
</g>
</svg>
