<?xml version="1.0" encoding="utf-8"?>
<!-- Generator: Adobe Illustrator 17.0.0, SVG Export Plug-In . SVG Version: 6.00 Build 0)  -->
<!DOCTYPE svg PUBLIC "-//W3C//DTD SVG 1.1//EN" "http://www.w3.org/Graphics/SVG/1.1/DTD/svg11.dtd">
<svg version="1.1" id="Layer_1" xmlns="http://www.w3.org/2000/svg" xmlns:xlink="http://www.w3.org/1999/xlink" x="0px" y="0px"
	 width="153.958px" height="190.332px" viewBox="0 0 153.958 190.332" style="enable-background:new 0 0 153.958 190.332;"
	 xml:space="preserve">
<style type="text/css">
	.st0{fill:#F8B434;}
	.st1{fill:#2B2C2B;}
	.st2{fill:#1F1E21;}
	.st3{fill:none;stroke:#1F1E21;stroke-width:1.0563;stroke-miterlimit:10;}
	.st4{fill:#433E8B;stroke:#231F20;stroke-width:1.9805;stroke-miterlimit:10;}
	.st5{opacity:0.15;fill:#231F20;}
	.st6{fill:#FFFFFF;}
</style>
<g>
	<rect x="0" y="0" class="st0" width="153.576" height="153.576"/>
	<g>
		<g>
			<path class="st1" d="M74.373,162.179v9.779c1.246-2.491,3.738-3.613,6.385-3.613c4.297,0,7.723,2.866,7.723,7.942
				c0,5.108-3.393,7.942-7.692,7.942c-2.615,0-5.139-1.309-6.415-3.644v3.395h-1.494v-21.8H74.373z M74.405,176.256
				c0,3.83,2.677,6.477,6.291,6.477c3.456,0,6.291-2.18,6.291-6.446c0-4.329-2.834-6.478-6.291-6.478
				C77.146,169.809,74.405,172.425,74.405,176.256z"/>
			<path class="st1" d="M107.006,168.594c0,5.139,0,10.246,0,15.385h-1.526v-3.27c-1.494,2.398-3.798,3.52-6.291,3.52
				c-4.297,0-7.817-3.239-7.817-7.942s3.52-7.88,7.817-7.88c2.492,0,5.015,1.152,6.291,3.55v-3.363H107.006z M92.898,176.287
				c0,3.862,2.803,6.446,6.291,6.446c8.564,0,8.564-12.862,0-12.862C95.702,169.871,92.898,172.425,92.898,176.287z"/>
			<path class="st1" d="M110.365,168.594h11.585v0.591l-9.716,13.361h9.716v1.432h-12.082v-0.529l9.809-13.486h-9.311V168.594z"/>
			<path class="st1" d="M139.916,168.594c0,5.139,0,10.246,0,15.385h-1.526v-3.27c-1.494,2.398-3.798,3.52-6.291,3.52
				c-4.297,0-7.817-3.239-7.817-7.942s3.52-7.88,7.817-7.88c2.492,0,5.015,1.152,6.291,3.55v-3.363H139.916z M125.808,176.287
				c0,3.862,2.803,6.446,6.291,6.446c8.564,0,8.564-12.862,0-12.862C128.612,169.871,125.808,172.425,125.808,176.287z"/>
			<path class="st1" d="M19.406,164.297c0,2.958,4.484,2.958,4.484,0C23.89,161.338,19.406,161.338,19.406,164.297z"/>
			<rect x="19.748" y="168.563" class="st1" width="3.8" height="15.416"/>
			<polygon class="st1" points="41.952,168.75 41.952,168.625 37.405,168.625 34.383,173.826 31.362,168.625 26.815,168.625 
				26.815,168.75 31.861,176.193 26.504,183.886 26.504,183.979 31.051,183.979 34.383,178.84 37.716,183.979 42.263,183.979 
				42.263,183.886 36.906,176.193 			"/>
			<path class="st1" d="M51.665,168.158c-4.983,0-8.161,3.363-8.161,8.035c0,4.921,3.145,8.191,8.439,8.191
				c2.337,0,4.983-0.81,6.603-2.491l-2.429-2.398c-0.872,0.903-2.709,1.432-4.111,1.432c-2.679,0-4.328-1.37-4.578-3.27h11.99
				C60.011,171.334,56.804,168.158,51.665,168.158z M47.491,174.511c0.561-1.993,2.243-2.99,4.297-2.99
				c2.181,0,3.738,0.997,3.986,2.99H47.491z"/>
			<rect x="62.343" y="162.21" class="st1" width="3.768" height="21.769"/>
			<path class="st1" d="M150.657,168.439c-1.962,0-4.142,0.809-5.108,2.896v-2.74h-0.063h-1.433v2.74v12.645h1.526v-8.969
				c0-2.803,2.212-5.108,5.077-5.139c0.903,0,1.805,0.218,2.615,0.716l0.685-1.246C152.93,168.719,151.809,168.407,150.657,168.439z
				"/>
			<path class="st1" d="M8.791,168.158c-4.651,0-8.157,3.508-8.157,8.158c0,4.575,3.583,8.159,8.157,8.159
				c4.575,0,8.159-3.584,8.159-8.159C16.95,171.666,13.442,168.158,8.791,168.158z M8.791,180.677c-2.585,0-4.359-1.962-4.359-4.361
				c0-2.397,1.619-4.36,4.359-4.36s4.361,1.962,4.361,4.36C13.151,178.715,11.375,180.677,8.791,180.677z"/>
			<polygon class="st1" points="4.088,170.681 4.088,168.563 3.839,168.563 0.29,168.563 0.29,190.332 4.088,190.332 4.088,186.057 
				4.088,182.111 			"/>
		</g>
		<g>
			<g>
				<rect x="31.016" y="24.679" class="st2" width="2.094" height="112.539"/>
			</g>
			<rect x="25.454" y="62.174" class="st2" width="13.218" height="13.218"/>
			<path class="st2" d="M68.32,16.832v15.694h15.694V16.832H68.32z M80.415,28.928h-8.497v-8.497h8.497V28.928z"/>
			<path class="st2" d="M112.428,60.932v15.694h15.694V60.932H112.428z M124.523,73.027h-8.497v-8.497h8.497V73.027z"/>
			<path class="st2" d="M68.32,105.036v15.694h15.694v-15.694H68.32z M80.415,117.131h-8.497v-8.496h8.497V117.131z"/>
			<g>
				<path class="st2" d="M80.415,108.703v7.941c23.114-2.036,41.575-20.502,43.609-43.617h-7.932
					C114.113,91.782,99.169,106.721,80.415,108.703z"/>
				<path class="st2" d="M116.087,64.531h7.941c-2.037-23.111-20.501-41.57-43.613-43.605v7.932
					C99.167,30.839,114.104,45.78,116.087,64.531z"/>
				<path class="st2" d="M71.919,20.925c-24.514,2.159-43.808,22.792-43.808,47.858h7.904c0-20.705,15.754-37.796,35.904-39.925
					V20.925z"/>
			</g>
			<circle class="st2" cx="32.063" cy="24.779" r="2.51"/>
			<circle class="st2" cx="32.063" cy="137.218" r="2.51"/>
			<line class="st3" x1="120.274" y1="63.385" x2="120.274" y2="34.715"/>
			<line class="st3" x1="120.274" y1="103.632" x2="120.274" y2="74.961"/>
			<circle class="st4" cx="120.274" cy="34.715" r="0.789"/>
			<circle class="st4" cx="120.274" cy="102.843" r="1.047"/>
			<line class="st3" x1="82.627" y1="112.883" x2="111.298" y2="112.883"/>
			<g>
				<circle class="st4" cx="111.298" cy="112.883" r="1.047"/>
			</g>
			<line class="st3" x1="82.627" y1="24.679" x2="111.298" y2="24.679"/>
			<g>
				<circle class="st4" cx="111.298" cy="24.679" r="1.047"/>
			</g>
			<g>
				<path class="st5" d="M64.28,123.874l-0.077-0.169c-0.308-0.663-0.821-1.208-1.453-1.561c-0.132-0.246-0.391-0.406-0.677-0.406
					c-0.017,0-0.203,0.012-0.203,0.012l-0.919-13.304c-0.015-0.208-0.113-0.401-0.272-0.535L42.692,92.747
					c-0.141-0.119-0.318-0.181-0.496-0.181c-0.11,0-0.221,0.024-0.324,0.072l-2.45,1.139c-0.271,0.126-0.445,0.398-0.445,0.697V118
					c0,0.208,0.084,0.407,0.234,0.552l9.583,9.284l-0.082,0.086c-0.201,0.21-0.262,0.508-0.176,0.772
					c-0.157,0.731-0.074,1.499,0.244,2.183l0.075,0.163c0.566,1.218,1.8,2.005,3.144,2.005c0.508,0,0.999-0.109,1.459-0.324
					l9.138-4.248c0.841-0.39,1.478-1.084,1.793-1.951C64.709,125.652,64.67,124.711,64.28,123.874z"/>
				<path class="st5" d="M63.92,121.952l-0.077-0.169c-0.308-0.663-0.821-1.208-1.453-1.561c-0.132-0.246-0.391-0.406-0.677-0.406
					c-0.017,0-0.203,0.012-0.203,0.012l-0.919-13.304c-0.015-0.208-0.113-0.401-0.272-0.535L42.332,90.826
					c-0.141-0.119-0.318-0.181-0.496-0.181c-0.11,0-0.221,0.024-0.324,0.072l-2.45,1.139c-0.271,0.126-0.445,0.398-0.445,0.697
					v23.526c0,0.208,0.084,0.407,0.234,0.552l9.583,9.284L48.353,126c-0.201,0.21-0.262,0.508-0.176,0.772
					c-0.157,0.731-0.074,1.499,0.244,2.183l0.075,0.163c0.566,1.218,1.8,2.005,3.144,2.005c0.508,0,0.999-0.109,1.459-0.324
					l9.138-4.248c0.841-0.39,1.478-1.084,1.793-1.951C64.349,123.731,64.31,122.789,63.92,121.952z"/>
				<path class="st6" d="M52.104,129.54c-1.771,0-3.398-1.037-4.146-2.645c-0.531-1.139-0.623-2.297-0.321-3.356l-9.663-9.357
					V88.663l4.622-2.147l19.51,16.447l0.927,13.42c1,0.447,1.815,1.242,2.279,2.246c0.592,1.275,0.643,2.517,0.22,3.66
					c-0.416,1.143-1.255,2.059-2.363,2.572l-9.137,4.25C53.41,129.397,52.765,129.54,52.104,129.54z"/>
				<path class="st2" d="M63.686,119.581l-0.076-0.165c-0.325-0.699-0.935-1.216-1.654-1.437l-0.209-0.056
					c-0.161-0.035-0.326-0.057-0.494-0.062l-0.966-13.975L42.302,88.722l-2.451,1.139v23.525l10.061,9.746
					c-0.108,0.138-0.201,0.284-0.279,0.437l-0.081,0.173c-0.295,0.69-0.296,1.492,0.031,2.195l0.076,0.163
					c0.441,0.948,1.4,1.56,2.446,1.56c0.394,0,0.776-0.085,1.135-0.253l9.138-4.248c0.653-0.303,1.149-0.842,1.396-1.52
					C64.021,120.966,63.99,120.233,63.686,119.581z M51.65,122.004l-9.778-9.473V93.4l6.438,13.851
					c-0.699,0.769-0.874,1.884-0.431,2.84c0.424,0.913,1.35,1.503,2.357,1.503c0.379,0,0.748-0.082,1.094-0.244
					c0.63-0.292,1.107-0.812,1.345-1.464c0.238-0.652,0.209-1.358-0.085-1.987c-0.436-0.938-1.411-1.535-2.447-1.499l-6.438-13.851
					l14.626,12.333l0.938,13.581L51.65,122.004z"/>
			</g>
		</g>
	</g>
</g>
</svg>
