<?xml version="1.0" encoding="utf-8"?>
<!-- Generator: Adobe Illustrator 17.0.0, SVG Export Plug-In . SVG Version: 6.00 Build 0)  -->
<!DOCTYPE svg PUBLIC "-//W3C//DTD SVG 1.1//EN" "http://www.w3.org/Graphics/SVG/1.1/DTD/svg11.dtd">
<svg version="1.1" id="Layer_1" xmlns="http://www.w3.org/2000/svg" xmlns:xlink="http://www.w3.org/1999/xlink" x="0px" y="0px"
	 width="218px" height="41px" viewBox="0 0 218 41" enable-background="new 0 0 218 41" xml:space="preserve">
<g>
	<path fill="#1F1E21" d="M105.144,0.841v13.706c1.747-3.492,5.24-5.064,8.949-5.064c6.023,0,10.825,4.017,10.825,11.132
		c0,7.159-4.756,11.132-10.782,11.132c-3.666,0-7.202-1.834-8.992-5.108v4.758h-2.094V0.841H105.144z M105.19,20.572
		c0,5.368,3.752,9.078,8.817,9.078c4.845,0,8.817-3.055,8.817-9.035c0-6.068-3.973-9.08-8.817-9.08
		C109.031,11.535,105.19,15.202,105.19,20.572z"/>
	<path fill="#1F1E21" d="M150.884,9.833c0,7.202,0,14.361,0,21.564h-2.14v-4.583c-2.094,3.362-5.324,4.933-8.817,4.933
		c-6.023,0-10.957-4.54-10.957-11.132S133.904,9.57,139.927,9.57c3.493,0,7.03,1.615,8.817,4.976V9.833H150.884z M131.11,20.615
		c0,5.413,3.929,9.035,8.817,9.035c12.004,0,12.004-18.027,0-18.027C135.039,11.623,131.11,15.202,131.11,20.615z"/>
	<path fill="#1F1E21" d="M155.592,9.833h16.238v0.829l-13.619,18.727h13.619v2.008h-16.935v-0.742l13.748-18.902h-13.051V9.833z"/>
	<path fill="#1F1E21" d="M197.012,9.833c0,7.202,0,14.361,0,21.564h-2.14v-4.583c-2.094,3.362-5.324,4.933-8.817,4.933
		c-6.023,0-10.957-4.54-10.957-11.132S180.032,9.57,186.055,9.57c3.493,0,7.03,1.615,8.817,4.976V9.833H197.012z M177.238,20.615
		c0,5.413,3.929,9.035,8.817,9.035c12.004,0,12.004-18.027,0-18.027C181.167,11.623,177.238,15.202,177.238,20.615z"/>
	<path fill="#1F1E21" d="M28.102,3.809c0,4.146,6.285,4.146,6.285,0C34.387-0.338,28.102-0.338,28.102,3.809z"/>
	<rect x="28.581" y="9.789" fill="#1F1E21" width="5.326" height="21.608"/>
	<polygon fill="#1F1E21" points="59.702,10.051 59.702,9.876 53.329,9.876 49.093,17.166 44.86,9.876 38.486,9.876 38.486,10.051 
		45.559,20.484 38.05,31.266 38.05,31.397 44.423,31.397 49.093,24.194 53.765,31.397 60.139,31.397 60.139,31.266 52.63,20.484 	
		"/>
	<path fill="#1F1E21" d="M73.317,9.222c-6.984,0-11.438,4.714-11.438,11.262c0,6.897,4.409,11.48,11.829,11.48
		c3.275,0,6.984-1.136,9.256-3.492l-3.405-3.362c-1.222,1.266-3.798,2.008-5.762,2.008c-3.754,0-6.067-1.92-6.416-4.583h16.805
		C85.014,13.674,80.519,9.222,73.317,9.222z M67.466,18.126c0.786-2.794,3.143-4.191,6.023-4.191c3.057,0,5.24,1.397,5.587,4.191
		H67.466z"/>
	<rect x="88.282" y="0.884" fill="#1F1E21" width="5.281" height="30.513"/>
	<path fill="#1F1E21" d="M212.066,9.615c-2.751,0-5.805,1.135-7.159,4.059V9.833h-0.089h-2.008v3.841v17.723h2.14V18.825
		c0-3.928,3.1-7.159,7.116-7.202c1.265,0,2.53,0.305,3.666,1.004l0.961-1.747C215.253,10.008,213.681,9.57,212.066,9.615z"/>
	<path fill="#1F1E21" d="M13.223,9.222c-6.519,0-11.434,4.916-11.434,11.435c0,6.413,5.022,11.436,11.434,11.436
		c6.413,0,11.436-5.023,11.436-11.436C24.659,14.138,19.742,9.222,13.223,9.222z M13.223,26.769c-3.623,0-6.11-2.751-6.11-6.112
		c0-3.36,2.269-6.111,6.11-6.111s6.112,2.751,6.112,6.111C19.335,24.018,16.845,26.769,13.223,26.769z"/>
	<polygon fill="#1F1E21" points="6.631,12.757 6.631,9.789 6.281,9.789 1.307,9.789 1.307,40.301 6.631,40.301 6.631,34.31 
		6.631,28.778 	"/>
</g>
</svg>
