<?xml version="1.0" encoding="utf-8"?>
<!-- Generator: Adobe Illustrator 17.0.0, SVG Export Plug-In . SVG Version: 6.00 Build 0)  -->
<!DOCTYPE svg PUBLIC "-//W3C//DTD SVG 1.1//EN" "http://www.w3.org/Graphics/SVG/1.1/DTD/svg11.dtd">
<svg version="1.1" xmlns="http://www.w3.org/2000/svg" xmlns:xlink="http://www.w3.org/1999/xlink" x="0px" y="0px" width="45px"
	 height="45px" viewBox="0 0 45 45" enable-background="new 0 0 45 45" xml:space="preserve">
<g id="Layer_3">
</g>
<g id="Layer_1">
</g>
<g id="Layer_2">
	<g>
		<g>
			<path fill="#808184" d="M43.092,0.696c-10.723,0-20.641,4.594-27.591,12.114H1.907c-0.49,0-0.931,0.295-1.119,0.747
				c-0.188,0.453-0.084,0.973,0.263,1.32l7.855,7.855c-0.812,1.788-1.495,3.653-2.025,5.591c-0.115,0.42,0.004,0.868,0.312,1.176
				l8.308,8.307c0.23,0.231,0.54,0.355,0.857,0.355c0.106,0,0.214-0.014,0.32-0.043c1.938-0.53,3.804-1.212,5.591-2.025l7.855,7.855
				c0.231,0.232,0.542,0.355,0.856,0.355c0.156,0,0.313-0.03,0.463-0.092c0.453-0.188,0.748-0.63,0.748-1.119V29.499
				c7.519-6.95,12.113-16.868,12.113-27.591C44.304,1.238,43.762,0.696,43.092,0.696z M16.711,35.591l-7.301-7.302
				c2.954-10.013,10.165-17.96,19.314-22.079L38.79,16.276C34.671,25.425,26.724,32.636,16.711,35.591z M41.86,3.14
				c-0.131,3.718-0.852,7.32-2.079,10.701L31.159,5.22C34.54,3.992,38.141,3.271,41.86,3.14z M4.831,15.232h8.615
				c-1.269,1.631-2.408,3.372-3.402,5.212L4.831,15.232z M29.768,40.168l-5.212-5.212c1.841-0.993,3.582-2.132,5.212-3.402V40.168z"
				/>
			<path fill="#808184" d="M1.907,44.304c0.31,0,0.62-0.118,0.857-0.355l4.845-4.845c0.473-0.473,0.473-1.24,0-1.713
				c-0.473-0.473-1.24-0.473-1.713,0l-4.845,4.845c-0.473,0.473-0.473,1.24,0,1.713C1.287,44.186,1.597,44.304,1.907,44.304z"/>
			<path fill="#808184" d="M7.107,43.95c0.236,0.236,0.546,0.355,0.857,0.355c0.31,0,0.62-0.118,0.857-0.355l3.634-3.634
				c0.473-0.473,0.473-1.24,0-1.713c-0.473-0.473-1.24-0.473-1.713,0l-3.634,3.634C6.634,42.709,6.634,43.476,7.107,43.95z"/>
			<path fill="#808184" d="M1.907,38.247c0.31,0,0.62-0.118,0.857-0.355l3.634-3.634c0.473-0.473,0.473-1.24,0-1.713
				c-0.473-0.473-1.24-0.473-1.713,0L1.052,36.18c-0.473,0.473-0.473,1.24,0,1.713C1.287,38.129,1.597,38.247,1.907,38.247z"/>
			<path fill="#808184" d="M24.922,14.021c-3.34,0-6.056,2.716-6.056,6.056s2.716,6.056,6.056,6.056s6.056-2.716,6.056-6.056
				S28.262,14.021,24.922,14.021z M24.922,23.711c-2.004,0-3.634-1.63-3.634-3.634s1.63-3.634,3.634-3.634s3.634,1.63,3.634,3.634
				S26.927,23.711,24.922,23.711z"/>
		</g>
	</g>
</g>
<g id="Layer_4">
</g>
<g id="Layer_5">
</g>
</svg>
