<?xml version="1.0" encoding="utf-8"?>
<!-- Generator: Adobe Illustrator 17.0.0, SVG Export Plug-In . SVG Version: 6.00 Build 0)  -->
<!DOCTYPE svg PUBLIC "-//W3C//DTD SVG 1.1//EN" "http://www.w3.org/Graphics/SVG/1.1/DTD/svg11.dtd">
<svg version="1.1" xmlns="http://www.w3.org/2000/svg" xmlns:xlink="http://www.w3.org/1999/xlink" x="0px" y="0px" width="35px"
	 height="35px" viewBox="0 0 35 35" enable-background="new 0 0 35 35" xml:space="preserve">
<g id="Layer_3">
</g>
<g id="Layer_1">
</g>
<g id="Layer_2">
	<g>
		<path fill="#808184" d="M34.634,19.631c-0.011-0.229-0.021-0.465-0.028-0.708l-0.061,0.057c-0.271,0.249-0.487,0.445-0.693,0.651
			l-2.76,2.764c-2.632,2.638-5.353,5.364-8.063,8.012c-0.539,0.526-1.406,0.906-2.11,0.924c-1.619,0.042-3.238,0.048-4.858,0.048
			l-2.1-0.001c-1.017,0-2.033,0.003-3.099,0.015c-0.934,0-1.449-0.357-1.778-1.233c-0.773-2.061-2.192-3.501-4.219-4.28
			c-1.044-0.401-1.247-1.045-1.236-1.951c0.031-2.859,0.055-6.235-0.009-9.602c-0.02-1.005,0.3-1.757,1.067-2.515
			c2.908-2.864,5.791-5.754,8.674-8.644l2.134-2.139c0.185-0.185,0.358-0.378,0.536-0.576c-0.539-0.085-1.06-0.128-1.552-0.128
			c-2.374,0-4.282,0.945-6.005,2.976C6.884,5.175,5.065,6.9,3.306,8.57L2.151,9.671c-1.253,1.2-1.83,2.583-1.819,4.352
			c0.026,4.058,0.022,8.116,0.018,12.175c-0.002,2.086-0.004,4.172-0.002,6.258c0.002,1.755,0.458,2.21,2.217,2.212l11.715-0.001
			c2.326,0,4.653,0.002,6.98,0.01h0.025c1.51,0,2.743-0.507,3.773-1.548c0.892-0.901,1.793-1.795,2.693-2.688
			c1.779-1.763,3.619-3.587,5.352-5.447c0.646-0.692,1.172-1.769,1.442-2.953C34.711,21.316,34.675,20.535,34.634,19.631z"/>
		<path fill="#808184" d="M15.386,17.014c-0.229,0.194-0.454,0.387-0.675,0.578l2.491,2.57l0.035-0.031
			c0.15-0.135,0.276-0.248,0.396-0.368c5.431-5.429,10.86-10.858,16.288-16.29c0.859-0.86,0.95-1.824,0.243-2.579
			c-0.318-0.339-0.705-0.518-1.12-0.518c-0.511,0-1.039,0.258-1.527,0.745l-4.635,4.634c-3.14,3.141-6.279,6.281-9.432,9.408
			C16.787,15.823,16.075,16.429,15.386,17.014z"/>
		<path fill="#808184" d="M19.953,23.295c-0.115,0.115-0.181,0.448-0.143,0.535c0.35,0.766,0.737,1.495,1.148,2.269l0.304,0.574
			c0.031-0.018,0.057-0.033,0.069-0.047c4.314-4.299,8.628-8.601,12.929-12.914c0.196-0.196,0.335-0.429,0.338-0.565
			c0.029-1.228,0.025-2.456,0.021-3.678l-0.001-0.801l-0.691,0.688C29.262,13.995,24.598,18.635,19.953,23.295z"/>
		<path fill="#808184" d="M8.761,13.288c-0.146,0.146-0.275,0.309-0.414,0.482l2.716,1.371L25.87,0.382
			c-0.104,0.001-0.208,0.003-0.313,0.004c-0.381,0.005-0.772,0.01-1.17,0.01c-0.52,0-1.049-0.009-1.577-0.035l-0.165-0.005
			c-0.695,0-1.231,0.244-1.795,0.815c-2.748,2.784-5.516,5.548-8.282,8.313L8.761,13.288z"/>
	</g>
</g>
<g id="Layer_4">
</g>
<g id="Layer_5">
</g>
</svg>
