<?xml version="1.0" encoding="utf-8"?>
<!-- Generator: Adobe Illustrator 17.0.0, SVG Export Plug-In . SVG Version: 6.00 Build 0)  -->
<!DOCTYPE svg PUBLIC "-//W3C//DTD SVG 1.1//EN" "http://www.w3.org/Graphics/SVG/1.1/DTD/svg11.dtd">
<svg version="1.1" xmlns="http://www.w3.org/2000/svg" xmlns:xlink="http://www.w3.org/1999/xlink" x="0px" y="0px" width="55px"
	 height="62px" viewBox="0 0 55 62" enable-background="new 0 0 55 62" xml:space="preserve">
<g id="Layer_3">
</g>
<g id="Layer_1">
</g>
<g id="Layer_2">
	<path fill="#808184" d="M46.176,7.358c0.796,1.321,2.237,2.151,3.795,2.151c2.447,0,4.438-1.99,4.438-4.438
		c0-2.447-1.991-4.439-4.438-4.439c-1.559,0-2.999,0.83-3.795,2.152H8.824C8.027,1.462,6.587,0.632,5.029,0.632
		c-2.448,0-4.438,1.992-4.438,4.439c0,2.448,1.991,4.438,4.438,4.438c1.558,0,2.998-0.83,3.795-2.151h1.367v18.464l-6.99,6.99
		c-0.802,0.802-1.244,1.872-1.244,3.013c0,1.141,0.441,2.21,1.244,3.013l21.286,21.286c0.802,0.802,1.873,1.244,3.013,1.244
		c1.141,0,2.211-0.442,3.013-1.244l21.286-21.286c0.802-0.802,1.244-1.872,1.244-3.013c0-1.141-0.442-2.211-1.244-3.013l-6.99-6.99
		V7.358H46.176z M16.287,7.358h22.427v12.369l-8.2-8.201c-0.802-0.802-1.872-1.244-3.013-1.244c-1.141,0-2.211,0.442-3.013,1.244
		l-8.2,8.201V7.358z M50.714,33.897c0.512,0.512,0.794,1.196,0.794,1.928c0,0.731-0.282,1.416-0.794,1.928L29.428,59.039
		c-1.025,1.026-2.832,1.024-3.856,0L4.286,37.753c-0.512-0.513-0.794-1.197-0.794-1.928c0-0.731,0.282-1.416,0.794-1.928
		l21.286-21.286c0.513-0.512,1.197-0.795,1.928-0.795s1.416,0.283,1.928,0.795L50.714,33.897z M20.898,24.706
		c-1.119,1.196-1.679,2.938-1.679,5.22c0,2.128,0.46,3.691,1.38,4.688c0.92,0.998,2.544,1.729,4.873,2.195l2.793,0.532
		c1.552,0.312,2.61,0.744,3.175,1.298c0.566,0.555,0.849,1.497,0.849,2.827c0,1.375-0.399,2.372-1.197,2.993
		s-2.084,0.931-3.858,0.931c-1.885,0-3.314-0.46-4.29-1.38c-0.976-0.92-1.485-2.234-1.53-3.94h-2.46v7.582h2.46v-2.394
		c1.352,1.906,3.536,2.859,6.552,2.859c2.748,0,4.727-0.592,5.936-1.779c1.207-1.185,1.812-2.931,1.812-5.236
		c0-2.128-0.482-3.675-1.446-4.64c-0.965-0.965-2.633-1.69-5.005-2.178l-2.693-0.532c-1.62-0.333-2.678-0.759-3.176-1.28
		c-0.499-0.521-0.748-1.391-0.748-2.61c0-1.441,0.332-2.504,0.997-3.192c0.665-0.687,1.884-1.031,3.658-1.031
		c3.281,0,5.066,1.429,5.354,4.289h2.461v-6.55h-2.461v2.127c-1.197-1.729-3.226-2.594-6.085-2.594
		C23.907,22.909,22.017,23.508,20.898,24.706z"/>
</g>
<g id="Layer_4">
</g>
<g id="Layer_5">
</g>
</svg>
