<?xml version="1.0" encoding="utf-8"?>
<!-- Generator: Adobe Illustrator 17.0.0, SVG Export Plug-In . SVG Version: 6.00 Build 0)  -->
<!DOCTYPE svg PUBLIC "-//W3C//DTD SVG 1.1//EN" "http://www.w3.org/Graphics/SVG/1.1/DTD/svg11.dtd">
<svg version="1.1" xmlns="http://www.w3.org/2000/svg" xmlns:xlink="http://www.w3.org/1999/xlink" x="0px" y="0px" width="50px"
	 height="47.15px" viewBox="0 0 50 47.15" enable-background="new 0 0 50 47.15" xml:space="preserve">
<g id="Layer_3">
</g>
<g id="Layer_1">
</g>
<g id="Layer_2">
	<g>
		<path fill="#808184" d="M3.688,8.166h36.031v5.622h3.015V7.042c0-1.022-0.868-1.891-1.891-1.891H2.615
			c-1.022,0-1.891,0.868-1.891,1.891v25.911c0,1.022,0.818,1.891,1.891,1.891h15.383v3.424h-3.373c-0.511,0-0.92,0.409-0.92,0.92
			v1.788c0,0.511,0.409,0.92,0.92,0.92h14.31c0.511,0,0.92-0.409,0.92-0.92v-1.788c0-0.511-0.409-0.92-0.92-0.92h-3.424v-3.424
			h7.053v-6.593H3.688V8.166z M21.729,30.193c0.716,0,1.329,0.613,1.329,1.329c0,0.716-0.613,1.329-1.329,1.329
			c-0.716,0-1.329-0.613-1.329-1.329C20.4,30.806,21.014,30.193,21.729,30.193z"/>
		<path fill="#808184" d="M47.231,15.934H36.703c-1.124,0-1.993,0.92-1.993,2.044v21.976c0,1.124,0.92,2.044,1.993,2.044h10.528
			c1.124,0,2.044-0.92,2.044-2.044V17.928C49.276,16.803,48.356,15.934,47.231,15.934z M40.281,17.416h3.322
			c0.255,0,0.46,0.204,0.46,0.46c0,0.255-0.204,0.46-0.46,0.46h-3.322c-0.255,0-0.46-0.204-0.46-0.46
			C39.821,17.62,40.026,17.416,40.281,17.416z M41.968,40.466c-0.716,0-1.329-0.613-1.329-1.329s0.613-1.329,1.329-1.329
			c0.716,0,1.329,0.613,1.329,1.329C43.297,39.853,42.683,40.466,41.968,40.466z M47.078,36.326H36.857V19.818h10.272v16.507H47.078
			z"/>
	</g>
</g>
<g id="Layer_4">
</g>
<g id="Layer_5">
</g>
</svg>
