<?xml version="1.0" encoding="utf-8"?>
<!-- Generator: Adobe Illustrator 17.0.0, SVG Export Plug-In . SVG Version: 6.00 Build 0)  -->
<!DOCTYPE svg PUBLIC "-//W3C//DTD SVG 1.1//EN" "http://www.w3.org/Graphics/SVG/1.1/DTD/svg11.dtd">
<svg version="1.1" xmlns="http://www.w3.org/2000/svg" xmlns:xlink="http://www.w3.org/1999/xlink" x="0px" y="0px" width="53px"
	 height="43px" viewBox="0 0 53 43" enable-background="new 0 0 53 43" xml:space="preserve">
<g id="Layer_3">
</g>
<g id="Layer_1">
</g>
<g id="Layer_2">
	<g>
		<path fill="#808184" d="M44.272,14.811c0.03,0.033,0.053,0.062,0.074,0.094l7.808,15.549c0.065,0.112,0.083,0.148,0.099,0.184
			l0.069,0.222l0.022,0.22l-0.006,0.095l-0.012,0.104l-0.028,0.115l-0.04,0.122l-0.08,0.158l-2.791,4.573v0.677
			c0.741,0.222,1.273,0.905,1.273,1.715v1.889c0,0.99-0.804,1.794-1.794,1.794H37.942c-0.989,0-1.793-0.804-1.793-1.794v-1.889
			c0-0.81,0.531-1.492,1.273-1.715v-0.677l-2.81-4.605l-0.025-0.057c-0.006-0.008-0.028-0.052-0.045-0.096l-0.062-0.226
			c0,0-0.014-0.172-0.013-0.214c0,0,0.017-0.167,0.026-0.208l0.032-0.11l0.048-0.13l0.053-0.094l7.858-15.634l0.036-0.038
			c0.035-0.05,0.061-0.081,0.091-0.108l0.116-0.095c0.088-0.064,0.123-0.082,0.158-0.101l0.129-0.057l0.224-0.069l0.034,0.011
			c0.033-0.007,0.082-0.013,0.133-0.013c0.133,0.008,0.178,0.012,0.222,0.021l0.105,0.029h0.042l0.1,0.05
			c0.095,0.049,0.134,0.071,0.171,0.097c0.093,0.07,0.131,0.101,0.165,0.135 M38.419,40.792l9.968-0.005l-0.001-2.832l-9.969,0.005
			L38.419,40.792z M47.613,34.792l2.248-3.683l-5.319-11.803l-0.286,7.243c0.845,0.344,1.415,1.171,1.415,2.098
			c0,1.249-1.017,2.266-2.266,2.266s-2.266-1.017-2.266-2.266c0-0.928,0.57-1.755,1.415-2.098l-0.285-7.243l-5.32,11.803
			l2.248,3.683H47.613z"/>
		<path fill="#808184" d="M5.109,39.426c-2.455,0-4.453-1.998-4.453-4.453V5.131c0-2.455,1.998-4.453,4.453-4.453h35.809
			c2.455,0,4.453,1.998,4.453,4.453V9.11c0,0.81-0.659,1.469-1.469,1.469c-0.811,0-1.47-0.659-1.47-1.469V5.131
			c0-0.835-0.679-1.514-1.514-1.514H5.109c-0.835,0-1.514,0.679-1.514,1.514v29.841c0,0.835,0.679,1.514,1.514,1.514h0.386
			l16.479-16.479c0.277-0.277,0.646-0.43,1.039-0.43s0.762,0.153,1.039,0.43l3.934,3.934l4.93-4.929
			c0.281-0.272,0.643-0.418,1.027-0.418c0.383,0,0.745,0.146,1.02,0.412c0.282,0.272,0.441,0.639,0.448,1.031
			c0.006,0.393-0.14,0.765-0.412,1.046l-4.934,4.935l2.71,2.716c0.558,0.578,0.558,1.475,0.006,2.046
			c-0.28,0.29-0.656,0.449-1.058,0.449l0,0c-0.384,0-0.746-0.146-1.021-0.412l-7.689-7.695L7.143,38.995
			c-0.273,0.274-0.652,0.431-1.039,0.431H5.109z"/>
		<path fill="#808184" d="M20.029,17.542c-3.004,0-5.448-2.444-5.448-5.448c0.004-3.001,2.448-5.445,5.447-5.448
			c3.005,0,5.449,2.444,5.449,5.448S23.033,17.542,20.029,17.542z M20.029,9.585c-1.384,0-2.509,1.126-2.509,2.51
			s1.125,2.509,2.509,2.509s2.51-1.125,2.51-2.509S21.413,9.585,20.029,9.585z"/>
		<path fill="#808184" d="M12.073,39.426c-0.811,0-1.47-0.659-1.47-1.47c0-0.81,0.659-1.469,1.47-1.469h26.315v2.939H12.073z"/>
	</g>
</g>
<g id="Layer_4">
</g>
<g id="Layer_5">
</g>
</svg>
