<?xml version="1.0" encoding="utf-8"?>
<!-- Generator: Adobe Illustrator 17.0.0, SVG Export Plug-In . SVG Version: 6.00 Build 0)  -->
<!DOCTYPE svg PUBLIC "-//W3C//DTD SVG 1.1//EN" "http://www.w3.org/Graphics/SVG/1.1/DTD/svg11.dtd">
<svg version="1.1" xmlns="http://www.w3.org/2000/svg" xmlns:xlink="http://www.w3.org/1999/xlink" x="0px" y="0px" width="63px"
	 height="59.409px" viewBox="0 0 63 59.409" enable-background="new 0 0 63 59.409" xml:space="preserve">
<g id="Layer_3">
</g>
<g id="Layer_1">
</g>
<g id="Layer_2">
	<g>
		<path fill="#808184" d="M62.02,30.758L44.097,1.523l-12.12,7.43c-5.211,0-10.241,0-14.815,0c-0.511-0.007-1.03,0.589-1.043,1.063
			v8.658L0.98,27.956l17.922,29.235l3.583-2.197v0.764c0.111,1.183,1.083,2.11,2.127,2.127H43.76
			c0.452-0.032,0.801-0.376,1.081-0.632c2.722-2.576,5.787-5.427,8.161-7.629c0.211-0.2,0.335-0.49,0.333-0.781l0.013-25.583
			l-0.006,12.817L62.02,30.758z M16.443,51.18c0.03,0.03,0.071,0.046,0.104,0.072C16.514,51.226,16.473,51.21,16.443,51.18z
			 M22.486,17.463v31.912h-4.238V11.08h26.594v4.255H24.613C23.43,15.446,22.503,16.418,22.486,17.463z M51.206,46.184
			c-3.363,0-6.726,0-10.089,0c0,3.191,0,6.383,0,9.574H24.613V17.463c8.854-0.036,17.8,0.054,26.61-0.007L51.206,46.184z
			 M51.223,15.328l-4.255,0.007v-5.318c0-0.418-0.285-0.808-0.663-0.976c0.377,0.168,0.663,0.558,0.663,0.976v5.318L51.223,15.328
			c0.677,0.13,1.305,0.707,1.763,1.439C52.527,16.035,51.9,15.458,51.223,15.328z"/>
		<rect x="28.869" y="23.313" fill="#808184" width="18.083" height="2.128"/>
		<rect x="28.869" y="30.759" fill="#808184" width="18.083" height="2.127"/>
		<rect x="28.869" y="38.206" fill="#808184" width="12.765" height="2.127"/>
	</g>
</g>
<g id="Layer_4">
</g>
<g id="Layer_5">
</g>
</svg>
