<?xml version="1.0" encoding="utf-8"?>
<!-- Generator: Adobe Illustrator 17.0.0, SVG Export Plug-In . SVG Version: 6.00 Build 0)  -->
<!DOCTYPE svg PUBLIC "-//W3C//DTD SVG 1.1//EN" "http://www.w3.org/Graphics/SVG/1.1/DTD/svg11.dtd">
<svg version="1.1" xmlns="http://www.w3.org/2000/svg" xmlns:xlink="http://www.w3.org/1999/xlink" x="0px" y="0px" width="75px"
	 height="64px" viewBox="0 0 75 64" enable-background="new 0 0 75 64" xml:space="preserve">
<g id="Layer_3">
</g>
<g id="Layer_1">
</g>
<g id="Layer_2">
	<g>
		<path fill="#808184" d="M49.101,28.311c-0.002-2.054-1.666-3.718-3.72-3.721h-8.676c0.342-1.816,0.515-3.66,0.515-5.508
			c-0.002-2.22-1.802-4.017-4.022-4.016c-1.072,0.001-2.1,0.43-2.854,1.192c-0.759,0.763-1.176,1.801-1.158,2.877
			c0.031,2.342-0.062,3.996-1.583,5.586c-0.671,0.702-2.172,1.712-3.009,2.245v-0.052H15.02v18.768h7.156
			c1.208-0.004,2.227-0.9,2.385-2.098c0.899,1.36,2.564,2.36,5.518,2.36h10.945c2.054,0.001,3.721-1.664,3.721-3.719
			c0-0.482-0.093-0.958-0.275-1.404c1.574-0.908,2.26-2.82,1.624-4.521c1.831-0.918,2.572-3.146,1.654-4.977
			c-0.017-0.034-0.035-0.069-0.053-0.103C48.584,30.517,49.102,29.445,49.101,28.311z M22.97,42.452
			c-0.129,0.981-1.029,1.672-2.01,1.544c-0.981-0.129-1.672-1.029-1.544-2.01c0.105-0.804,0.737-1.437,1.541-1.543
			c0.983-0.128,1.884,0.564,2.012,1.547C22.99,42.143,22.99,42.298,22.97,42.452z M45.381,29.413h-0.114
			c-0.723,0.002-1.308,0.59-1.306,1.313c0.001,0.545,0.34,1.032,0.851,1.223c0.57,0.211,0.86,0.844,0.649,1.414
			c-0.161,0.435-0.578,0.722-1.042,0.717h-0.853c-0.723,0-1.309,0.586-1.309,1.309c0,0.522,0.31,0.993,0.788,1.201
			c0.562,0.235,0.827,0.881,0.592,1.443c-0.173,0.414-0.58,0.682-1.029,0.677h-0.622c-0.723,0-1.309,0.587-1.309,1.31
			c0,0.52,0.308,0.991,0.785,1.199c0.556,0.248,0.805,0.899,0.558,1.455c-0.176,0.394-0.565,0.65-0.997,0.653H30.086
			c-2.315,0-3.857-0.582-3.857-3.421V29.028c0.876-0.561,2.416-1.61,3.263-2.495c2.197-2.296,2.345-4.725,2.308-7.437
			c-0.005-0.775,0.619-1.407,1.394-1.412c0.775-0.005,1.407,0.619,1.412,1.394c-0.001,2.192-0.266,4.375-0.791,6.503
			c-0.174,0.702,0.255,1.412,0.957,1.585c0.1,0.025,0.203,0.038,0.306,0.038h10.301c0.609-0.022,1.12,0.454,1.142,1.063
			s-0.454,1.12-1.063,1.142c-0.026,0.001-0.052,0.001-0.079,0L45.381,29.413z"/>
		<path fill="#808184" d="M61.653,50.798c4.45-1.218,8.54-3.494,11.921-6.633c0.012-0.012,0.019-0.027,0.031-0.039
			c0.029-0.028,0.049-0.062,0.075-0.093c0.094-0.108,0.173-0.229,0.234-0.359c0.021-0.045,0.041-0.087,0.057-0.134
			c0.064-0.171,0.098-0.353,0.099-0.536l0.002-0.011c-0.002-0.131-0.021-0.261-0.055-0.387l0,0l0,0
			c-0.043-0.147-0.108-0.287-0.192-0.416c-0.024-0.038-0.051-0.072-0.079-0.108c-0.029-0.044-0.06-0.087-0.093-0.129
			c-0.026-0.028-0.062-0.038-0.089-0.064c-0.298-0.24-0.659-0.388-1.039-0.428c-0.015,0-0.028-0.007-0.043-0.007
			c-5.009,0.15-9.741-2.295-12.517-6.466c0.484-3.57,0.251-7.201-0.685-10.68C54.839,8.642,38.556-0.474,22.88,3.929
			C7.144,8.113-2.238,24.244,1.908,39.99c4.474,16.369,22.411,23.758,36.354,20.391c5.504-1.394,10.463-4.408,14.235-8.651
			C55.579,51.911,58.671,51.597,61.653,50.798z M4.927,39.165C1.235,25.086,9.635,10.675,23.705,6.949
			c14.009-3.95,28.572,4.185,32.555,18.184c0.889,3.28,1.072,6.712,0.539,10.068c-0.002,0.077,0.001,0.153,0.011,0.229
			c-0.027,0.226,0.022,0.454,0.14,0.648c0.024,0.076,0.053,0.15,0.089,0.221c0.012,0.019,0.028,0.034,0.041,0.053l0.015,0.02
			c1.937,2.978,4.698,5.329,7.946,6.768c1.118,0.475,2.282,0.835,3.473,1.073c-4.843,3.328-10.691,4.871-16.546,4.364
			c-0.041-0.003-0.078,0.014-0.118,0.014c-0.41,0.007-0.803,0.166-1.102,0.446c-0.029,0.029-0.067,0.041-0.094,0.072
			c-3.417,4.036-8.004,6.911-13.126,8.228C25.01,60.361,8.923,53.781,4.927,39.165z"/>
	</g>
</g>
<g id="Layer_4">
</g>
<g id="Layer_5">
</g>
</svg>
