<?xml version="1.0" encoding="utf-8"?>
<!-- Generator: Adobe Illustrator 17.0.0, SVG Export Plug-In . SVG Version: 6.00 Build 0)  -->
<!DOCTYPE svg PUBLIC "-//W3C//DTD SVG 1.1//EN" "http://www.w3.org/Graphics/SVG/1.1/DTD/svg11.dtd">
<svg version="1.1" xmlns="http://www.w3.org/2000/svg" xmlns:xlink="http://www.w3.org/1999/xlink" x="0px" y="0px" width="58px"
	 height="54.694px" viewBox="0 0 58 54.694" enable-background="new 0 0 58 54.694" xml:space="preserve">
<g id="Layer_3">
</g>
<g id="Layer_1">
</g>
<g id="Layer_2">
	<path fill="#808184" d="M55.689,47.493h-0.92V35.177c0.566-0.647,0.92-1.483,0.92-2.409c0-2.03-1.651-3.682-3.681-3.682
		s-3.681,1.651-3.681,3.682c0,0.926,0.354,1.762,0.92,2.409v1.066c-1.625,3.599-5.3,5.896-9.163,5.729
		c-3.587-0.156-6.832-2.407-8.323-5.742v-1.053c0.566-0.647,0.92-1.483,0.92-2.409c0-2.03-1.651-3.682-3.681-3.682
		s-3.682,1.651-3.682,3.682c0,0.926,0.354,1.762,0.92,2.409v1.066c-1.625,3.599-5.297,5.896-9.163,5.729
		c-3.587-0.156-6.832-2.407-8.323-5.742v-1.053c0.566-0.647,0.92-1.483,0.92-2.409c0-2.03-1.651-3.682-3.681-3.682
		s-3.681,1.651-3.681,3.682c0,0.926,0.354,1.762,0.92,2.409v12.316h-0.92c-0.509,0-0.92,0.411-0.92,0.92v3.681
		c0,0.509,0.412,0.92,0.92,0.92h53.378c0.509,0,0.92-0.412,0.92-0.92v-3.681C56.61,47.904,56.198,47.493,55.689,47.493z
		 M52.008,30.927c1.015,0,1.841,0.826,1.841,1.841c0,0.535-0.233,1.012-0.598,1.349c0,0-0.012,0.006-0.017,0.011
		c-0.688,0.619-1.762,0.619-2.45,0c-0.005-0.004-0.012-0.007-0.012-0.007c-0.372-0.34-0.605-0.818-0.605-1.353
		C50.167,31.753,50.993,30.927,52.008,30.927z M52.929,36.329v11.164h-1.841V36.329c0.031,0.008,0.064,0.011,0.096,0.019
		c0.061,0.014,0.123,0.024,0.185,0.036c0.204,0.037,0.409,0.061,0.616,0.063c0,0,0.015,0.003,0.023,0.003s0.016-0.003,0.024-0.003
		c0.207-0.002,0.413-0.026,0.616-0.063c0.063-0.011,0.124-0.022,0.185-0.036C52.865,36.34,52.897,36.338,52.929,36.329z
		 M31.761,39.684c2.041,2.441,5.027,3.987,8.243,4.127c0.16,0.007,0.32,0.011,0.479,0.011c3.395,0,6.604-1.564,8.764-4.143v7.814
		H31.761V39.684z M29,30.927c1.015,0,1.84,0.826,1.84,1.841c0,0.535-0.233,1.012-0.599,1.349c0,0-0.012,0.006-0.017,0.011
		c-0.688,0.619-1.761,0.619-2.45,0c-0.005-0.004-0.012-0.006-0.012-0.006c-0.371-0.341-0.604-0.819-0.604-1.354
		C27.159,31.753,27.985,30.927,29,30.927z M29.921,36.329v11.164h-1.84V36.329c0.031,0.008,0.063,0.011,0.096,0.019
		c0.061,0.014,0.122,0.024,0.185,0.036c0.203,0.037,0.408,0.061,0.615,0.063c0.008,0,0.015,0.003,0.023,0.003
		c0.008,0,0.016-0.003,0.024-0.003c0.207-0.002,0.412-0.026,0.616-0.063c0.063-0.011,0.123-0.022,0.185-0.036
		C29.857,36.34,29.889,36.338,29.921,36.329z M8.753,39.684c2.04,2.441,5.026,3.987,8.243,4.127c0.16,0.007,0.32,0.011,0.479,0.011
		c3.394,0,6.604-1.564,8.763-4.143v7.814H8.753V39.684z M5.992,30.927c1.015,0,1.841,0.826,1.841,1.841
		c0,0.535-0.233,1.012-0.599,1.349c0,0-0.012,0.006-0.017,0.011c-0.688,0.619-1.762,0.619-2.45,0
		c-0.005-0.004-0.012-0.006-0.018-0.011c-0.365-0.337-0.598-0.814-0.598-1.349C4.151,31.753,4.977,30.927,5.992,30.927z
		 M6.912,36.329v11.164H5.072V36.329c0.031,0.008,0.064,0.011,0.097,0.019c0.061,0.014,0.123,0.024,0.185,0.036
		c0.204,0.037,0.409,0.061,0.616,0.063c0.007,0,0.015,0.003,0.023,0.003s0.016-0.003,0.024-0.003
		c0.207-0.002,0.412-0.026,0.616-0.063c0.063-0.011,0.124-0.022,0.185-0.036C6.848,36.34,6.881,36.338,6.912,36.329z M54.769,51.174
		H3.231v-1.841h51.538V51.174z M32.626,16.453c2.452,0,4.446-1.925,4.446-4.291s-1.995-4.291-4.446-4.291
		c-2.451,0-4.446,1.925-4.446,4.291S30.175,16.453,32.626,16.453z M32.626,9.712c1.437,0,2.605,1.099,2.605,2.45
		s-1.168,2.45-2.605,2.45c-1.437,0-2.605-1.099-2.605-2.45S31.19,9.712,32.626,9.712z M47.866,3.813H10.134
		c-0.508,0-0.92,0.343-0.92,0.765v18.844c0,0.423,0.412,0.765,0.92,0.765h37.733c0.509,0,0.921-0.342,0.921-0.765V4.578
		C48.787,4.155,48.375,3.813,47.866,3.813z M46.946,22.656H11.054v-2.301l9.019-4.957l0.014-0.008
		c1.217-0.693,2.837-0.637,3.98,0.138l5.808,4.032c1.632,1.126,3.931,1.299,5.781,0.436l11.29-5.117V22.656z M46.946,13.136
		l-12.178,5.52c-1.188,0.557-2.667,0.448-3.718-0.275l-5.808-4.031c-1.776-1.207-4.295-1.298-6.191-0.225l-7.998,4.396V5.343h35.892
		V13.136z M6.682,27.057h44.635c0.509,0,0.92-0.343,0.92-0.766V1.708c0-0.423-0.412-0.765-0.92-0.765H6.682
		c-0.508,0-0.92,0.342-0.92,0.765v24.583C5.762,26.714,6.174,27.057,6.682,27.057z M7.602,2.473h42.795v23.053H7.602V2.473z"/>
</g>
<g id="Layer_4">
</g>
<g id="Layer_5">
</g>
</svg>
